<?xml version="1.0" standalone="no"?>
<!DOCTYPE svg PUBLIC "-//W3C//DTD SVG 20010904//EN"
 "http://www.w3.org/TR/2001/REC-SVG-20010904/DTD/svg10.dtd">
<svg version="1.0" xmlns="http://www.w3.org/2000/svg"
 width="300.000000pt" height="413.000000pt" viewBox="0 0 300.000000 413.000000"
 preserveAspectRatio="xMidYMid meet">
<metadata>
Created by potrace 1.10, written by Peter Selinger 2001-2011
</metadata>
<g transform="translate(0.000000,413.000000) scale(0.100000,-0.100000)"
fill="#000000" stroke="none">
<path d="M1090 3625 c-19 -14 -30 -25 -25 -25 5 0 -1 -7 -13 -16 -12 -8 -22
-22 -22 -30 0 -8 -7 -14 -16 -12 -26 5 -28 -19 -2 -33 13 -6 20 -8 16 -4 -4 4
0 14 8 22 8 8 12 18 10 22 -3 4 4 14 15 21 10 8 19 18 19 23 0 4 12 19 28 32
36 32 25 32 -18 0z"/>
<path d="M1251 3620 c-19 -11 -41 -26 -48 -35 -7 -8 -8 -10 -1 -5 28 24 27 7
-2 -30 -17 -22 -28 -40 -23 -40 9 0 52 61 52 74 -1 13 23 26 49 26 13 0 22 6
22 15 0 19 -7 18 -49 -5z"/>
<path d="M1283 3580 c-44 -33 -58 -55 -41 -66 7 -4 8 -3 4 4 -4 7 -4 12 1 12
12 1 87 69 81 75 -2 3 -23 -9 -45 -25z"/>
<path d="M1096 3567 c-11 -16 -15 -34 -11 -44 5 -15 9 -12 21 16 19 45 12 63
-10 28z"/>
<path d="M1336 3550 c-9 -17 -24 -30 -32 -30 -8 0 -14 -8 -14 -17 0 -15 2 -16
10 -3 5 8 12 11 16 7 5 -4 16 9 26 29 22 46 18 54 -6 14z"/>
<path d="M1426 3508 c-13 -17 -16 -18 -12 -5 7 23 -10 13 -25 -15 -9 -16 -8
-19 3 -12 7 5 15 9 18 10 18 3 39 18 44 30 8 22 -10 17 -28 -8z"/>
<path d="M1209 3483 c-1 -5 -1 -11 0 -15 1 -9 -56 -28 -63 -21 -3 4 -6 2 -6
-4 0 -7 -25 -11 -62 -11 -61 0 -63 -1 -105 -45 -27 -29 -43 -55 -43 -71 0 -13
-8 -32 -17 -42 -17 -17 -18 -16 -24 12 -12 55 -9 70 22 102 31 32 26 42 -12
22 -19 -11 -55 -68 -51 -83 1 -4 -5 -21 -13 -37 -16 -30 -12 -75 7 -86 6 -4 9
9 8 32 -4 53 -2 64 10 64 6 0 10 -19 10 -43 0 -24 5 -48 11 -54 6 -6 11 -26
12 -44 2 -22 7 -33 15 -31 9 2 11 -2 4 -14 -6 -10 -4 -29 4 -53 16 -43 17 -61
5 -61 -4 0 -18 33 -31 73 -13 39 -25 78 -28 86 -3 9 -1 12 6 7 7 -4 12 -3 12
2 0 17 -28 21 -34 6 -12 -31 -6 -113 9 -128 20 -20 19 -36 -4 -36 -19 0 -21
-12 -8 -60 3 -14 8 -47 11 -75 8 -89 41 -195 60 -195 4 0 3 -6 -3 -13 -14 -18
-2 -30 16 -16 13 11 17 -2 16 -48 -1 -20 26 -2 29 20 2 13 -6 30 -20 42 -53
46 -107 330 -63 330 19 0 39 -90 34 -157 l-3 -53 15 40 c13 31 14 54 7 107 -4
37 -5 73 0 80 11 19 -2 110 -19 130 -21 24 -12 46 9 24 26 -26 43 -20 24 8
-14 22 -19 86 -6 86 3 0 6 18 7 41 2 36 28 97 43 100 3 1 15 3 26 4 12 1 26 5
33 9 6 4 11 2 11 -3 0 -15 65 -4 110 17 24 12 35 24 36 40 1 20 -4 32 -7 15z"/>
<path d="M1470 3480 c0 -5 -7 -10 -15 -10 -8 0 -15 -5 -15 -11 0 -5 -4 -8 -9
-5 -5 3 -12 -2 -16 -12 -6 -15 -8 -15 -18 -2 -17 21 -41 25 -34 5 4 -8 2 -15
-3 -15 -6 0 -10 6 -10 13 0 7 -12 13 -27 13 -16 0 -40 4 -55 8 -20 6 -28 5
-28 -5 0 -7 3 -9 6 -6 4 4 20 -5 36 -18 16 -14 34 -23 39 -19 5 3 9 1 9 -3 0
-5 30 -6 67 -2 37 4 72 5 78 4 33 -11 112 -13 125 -4 13 9 12 10 -2 5 -10 -3
-20 -1 -23 3 -2 5 -22 12 -42 15 -74 13 -77 15 -57 37 10 11 12 19 6 19 -7 0
-12 -4 -12 -10z"/>
<path d="M816 3422 c4 -15 0 -28 -9 -35 -8 -7 -21 -30 -29 -52 -21 -54 -17
-228 5 -270 l16 -30 -1 42 c0 24 -3 41 -7 39 -6 -4 -6 16 2 155 2 31 8 62 13
70 31 49 46 97 25 85 -5 -4 -12 0 -15 6 -3 7 -3 3 0 -10z"/>
<path d="M1013 3123 c-15 -5 -17 -39 -4 -48 5 -3 11 5 13 17 2 13 10 23 18 23
10 0 14 -8 12 -25 -2 -14 -1 -22 3 -18 4 4 9 18 10 31 2 17 -2 23 -19 24 -11
1 -27 -1 -33 -4z"/>
<path d="M1432 3053 c-34 -34 -37 -40 -26 -61 6 -13 17 -29 24 -35 10 -9 11
-9 5 1 -9 17 29 60 70 78 26 11 27 13 8 14 -12 0 -34 -5 -49 -10 -24 -10 -26
-9 -14 5 11 13 29 16 87 13 40 -2 73 0 73 3 0 16 -30 26 -82 28 -54 2 -59 0
-96 -36z"/>
<path d="M1648 3061 c12 -11 22 -24 22 -31 0 -7 -8 -9 -22 -5 -18 6 -20 4 -12
-5 15 -16 49 -9 50 10 1 21 -26 50 -45 50 -12 -1 -11 -5 7 -19z"/>
<path d="M1791 3037 c-8 -26 -11 -65 -8 -87 3 -27 1 -40 -6 -40 -8 0 -8 -3 0
-8 10 -7 10 -12 -1 -27 -8 -11 -11 -25 -8 -33 3 -8 -1 -18 -9 -23 -11 -6 -11
-9 -1 -9 9 0 10 -5 2 -19 -13 -25 -13 -44 0 -36 6 3 10 -2 10 -11 0 -25 12 -9
15 20 5 43 17 91 26 101 4 6 4 29 -1 50 -16 68 -12 102 12 119 12 9 25 16 29
16 12 0 29 -52 29 -89 0 -49 -37 -199 -56 -228 -8 -13 -11 -23 -6 -23 5 0 18
18 31 40 12 22 20 40 16 40 -3 0 1 13 10 29 8 17 18 47 21 68 3 21 6 40 7 43
3 17 -18 98 -30 117 -12 18 -19 20 -38 13 -19 -7 -24 -5 -27 8 -2 9 -10 -4
-17 -31z"/>
<path d="M1058 3056 c-10 -7 -30 -30 -44 -51 -22 -33 -25 -45 -20 -94 3 -31 5
-59 6 -62 0 -4 6 -9 14 -12 10 -4 12 4 10 36 -2 22 -6 48 -9 58 -4 12 1 22 15
29 11 6 18 15 15 20 -8 13 34 52 47 44 7 -5 4 -10 -10 -15 -12 -5 -22 -13 -22
-19 0 -6 11 -3 25 6 14 9 25 21 25 28 0 7 22 12 58 13 44 1 50 0 27 -7 -25 -6
-26 -8 -7 -9 32 -1 82 -41 83 -65 0 -15 4 -10 13 14 14 37 6 60 -20 60 -8 0
-14 7 -14 15 0 8 -11 17 -25 21 -32 8 -104 -3 -123 -18 -10 -9 -12 -8 -10 2 4
18 -14 22 -34 6z"/>
<path d="M1546 3015 c4 -8 1 -15 -5 -15 -6 0 -11 5 -11 10 0 18 -28 11 -57
-15 -15 -13 -23 -25 -17 -25 6 0 19 9 29 20 l18 20 14 -20 c18 -26 53 -26 60
0 6 24 16 25 34 4 11 -14 10 -18 -6 -30 -10 -8 -25 -14 -32 -14 -7 0 -13 -4
-13 -9 0 -6 -12 -6 -32 0 -40 11 -50 3 -14 -11 56 -21 96 -8 121 39 14 28 13
29 -13 39 -15 6 -39 13 -54 16 -22 5 -26 3 -22 -9z"/>
<path d="M1827 2983 c-9 -21 -9 -27 1 -31 6 -2 12 -14 12 -27 0 -13 5 -27 10
-30 6 -4 10 17 10 54 0 65 -13 78 -33 34z"/>
<path d="M1092 2982 c-18 -10 -30 -21 -26 -25 11 -11 21 -8 39 10 16 16 18 16
27 0 13 -24 59 -22 65 3 6 24 16 25 33 5 7 -8 18 -15 24 -15 18 1 -35 40 -54
40 -10 0 -21 -6 -24 -12 -5 -10 -7 -10 -12 0 -8 17 -33 15 -72 -6z"/>
<path d="M889 2913 c3 -41 5 -45 14 -26 5 12 7 33 3 47 -11 43 -21 29 -17 -21z"/>
<path d="M1110 2910 c26 -20 53 -18 99 5 21 11 15 12 -49 13 l-74 0 24 -18z"/>
<path d="M1417 2884 c-10 -28 -1 -47 26 -59 29 -13 35 -59 10 -70 -10 -4 -55
-9 -101 -10 -68 -2 -84 0 -91 13 -5 9 -13 14 -17 10 -4 -4 0 -18 9 -32 12 -18
25 -24 54 -24 21 -1 47 -2 58 -2 30 -3 98 11 113 23 6 5 12 19 12 31 0 28 -33
90 -45 85 -5 -2 -12 10 -15 26 -6 27 -7 28 -13 9z"/>
<path d="M1264 2842 c-15 -10 -25 -40 -14 -47 5 -3 12 5 16 17 4 13 12 26 18
30 6 4 7 8 1 8 -5 0 -15 -4 -21 -8z"/>
<path d="M945 2810 c-8 -13 5 -79 16 -86 5 -3 9 -13 9 -22 0 -9 6 -29 14 -43
7 -14 12 -41 11 -60 -2 -18 0 -42 5 -53 9 -26 2 -46 -16 -46 -8 0 -13 -3 -13
-7 3 -20 -3 -32 -27 -57 -17 -16 -22 -26 -13 -26 8 0 -5 -12 -28 -26 -47 -27
-57 -46 -20 -36 18 6 77 63 134 131 2 3 0 -15 -3 -40 -6 -44 18 -153 36 -164
5 -3 5 9 0 27 -6 17 -7 34 -5 37 3 2 27 -19 53 -49 47 -53 240 -205 249 -196
2 2 -38 36 -90 75 -88 66 -159 138 -202 204 -12 19 -19 53 -22 111 -2 52 -13
115 -29 167 -14 46 -30 103 -36 127 -10 44 -13 48 -23 32z"/>
<path d="M1283 2652 c-10 -10 -30 -26 -45 -35 -53 -33 -19 -78 41 -55 12 4 76
9 142 11 66 2 122 7 126 10 9 9 -26 46 -59 63 -25 13 -28 13 -28 -1 0 -9 9
-15 24 -15 13 0 30 -7 37 -16 13 -15 11 -16 -16 -12 -17 4 -40 8 -52 11 -13 3
-22 2 -20 -3 1 -4 -2 -8 -8 -8 -5 0 -9 4 -7 9 3 12 -25 12 -33 -1 -3 -5 -15
-6 -29 0 -16 6 -35 3 -66 -11 -24 -11 -45 -17 -48 -14 -11 10 22 35 69 50 27
9 49 21 49 26 0 16 -59 10 -77 -9z"/>
<path d="M1475 2520 c-3 -5 -33 -10 -66 -10 -68 0 -100 -18 -74 -40 8 -7 15
-9 15 -6 0 4 9 2 20 -4 11 -6 20 -7 20 -2 0 4 20 16 44 26 25 10 47 25 50 32
6 16 0 19 -9 4z"/>
<path d="M1053 2505 c3 -11 8 -29 11 -41 3 -11 27 -33 52 -49 25 -16 58 -42
75 -59 16 -16 29 -26 29 -22 0 5 6 4 13 -1 6 -6 19 -13 28 -16 13 -4 16 -1 11
16 -3 12 -7 16 -10 9 -4 -13 -93 58 -170 138 -30 30 -42 39 -39 25z"/>
<path d="M1569 2380 c-30 -27 -58 -50 -64 -50 -5 0 -21 -9 -35 -20 l-25 -20
35 12 c19 6 46 20 59 30 25 19 96 98 88 98 -2 0 -28 -22 -58 -50z"/>
<path d="M680 2300 c-36 -21 -70 -43 -77 -49 -7 -6 -14 -11 -17 -11 -3 0 -33
-20 -68 -45 -60 -43 -158 -95 -184 -99 -7 -1 -21 -9 -31 -17 -10 -8 -40 -26
-67 -39 -26 -13 -52 -34 -56 -46 -5 -12 -14 -25 -19 -29 -6 -3 -11 -13 -11
-21 0 -8 -9 -36 -21 -61 -18 -39 -21 -69 -24 -207 -2 -88 0 -165 5 -171 8 -11
10 -28 10 -93 0 -23 7 -53 16 -67 8 -13 17 -36 18 -52 2 -15 6 -35 9 -43 4 -8
9 -26 11 -40 14 -72 37 -177 43 -190 3 -8 7 -21 9 -28 1 -8 6 -21 10 -30 4 -9
8 -19 9 -22 8 -32 24 -70 61 -148 24 -51 44 -97 44 -102 0 -6 12 -29 27 -53
15 -23 26 -46 25 -50 -1 -5 2 -6 8 -2 10 6 -8 60 -34 100 -23 35 -103 227
-119 285 -9 30 -32 129 -52 220 -20 91 -41 168 -46 171 -5 3 -8 21 -7 40 1 19
-4 69 -11 113 -17 106 -7 213 23 237 21 17 21 17 -7 12 -15 -3 -27 -4 -27 -2
0 24 35 159 47 183 19 39 53 76 68 76 7 0 38 17 71 38 32 21 83 48 113 60 29
12 97 53 150 90 53 38 113 79 134 91 20 13 37 27 37 32 0 11 7 14 -70 -31z"/>
<path d="M724 2282 c-39 -26 -91 -63 -115 -83 -25 -20 -87 -57 -139 -82 -52
-25 -104 -52 -114 -59 -17 -13 -17 -15 -2 -21 9 -4 16 -3 16 2 0 9 63 41 160
83 30 12 68 37 85 53 16 17 63 52 103 79 39 26 72 53 72 58 0 5 5 6 10 3 6 -3
10 -1 10 4 0 17 -10 13 -86 -37z"/>
<path d="M1353 2062 c-27 -9 -89 -65 -127 -115 -32 -42 -32 -49 2 -36 17 6 22
14 18 27 -6 19 15 42 81 89 28 20 32 21 45 6 7 -9 12 -18 11 -20 -5 -6 5 -8
11 -2 4 3 0 12 -9 19 -22 18 -18 29 10 26 13 -2 22 1 19 5 -6 10 -29 10 -61 1z"/>
<path d="M840 2057 c7 -8 113 -47 125 -46 6 0 -10 8 -35 18 -55 22 -97 35 -90
28z"/>
<path d="M313 2023 c9 -2 15 -9 12 -14 -12 -19 6 -28 23 -11 21 20 10 32 -28
31 -17 -1 -19 -3 -7 -6z"/>
<path d="M1422 1982 c1 -9 -1 -23 -5 -29 -10 -16 51 -18 73 -2 11 7 5 8 -22 3
-41 -7 -46 -3 -23 19 12 13 12 15 -6 20 -15 4 -19 1 -17 -11z"/>
<path d="M204 1927 c-12 -12 -27 -33 -34 -46 -12 -23 -11 -24 11 -17 13 4 35
10 49 12 73 14 74 15 59 25 -7 5 -27 9 -42 9 -24 0 -27 3 -22 20 8 25 5 24
-21 -3z"/>
<path d="M1256 1860 c9 -19 21 -38 26 -41 5 -3 9 -9 8 -13 0 -4 8 -18 20 -33
11 -14 20 -23 20 -21 0 10 -50 93 -71 118 l-20 25 17 -35z"/>
<path d="M1701 1862 c-16 -31 -25 -96 -12 -88 7 5 10 13 8 19 -2 7 2 29 9 50
14 39 11 49 -5 19z"/>
<path d="M1220 1867 c0 -12 121 -290 132 -302 9 -9 -2 20 -52 145 -23 58 -79
168 -80 157z"/>
<path d="M220 1850 c-11 -7 -8 -10 15 -9 17 0 39 4 50 9 16 7 14 9 -15 9 -19
0 -42 -4 -50 -9z"/>
<path d="M164 1815 c-17 -14 -15 -15 36 -11 77 7 77 6 55 16 -31 14 -69 11
-91 -5z"/>
<path d="M1423 1791 c2 -10 0 -25 -4 -34 -5 -9 -13 -49 -18 -89 -8 -61 -6 -85
10 -143 l19 -70 -6 65 c-3 36 -9 69 -12 75 -8 13 -3 70 10 120 5 22 9 40 7 41
-2 0 3 9 11 19 12 15 12 17 1 10 -11 -6 -13 -4 -8 8 4 10 2 17 -4 17 -6 0 -9
-8 -6 -19z"/>
<path d="M420 1797 c0 -8 111 -39 117 -33 3 3 -7 10 -23 17 -36 13 -94 24 -94
16z"/>
<path d="M659 1668 c17 -27 36 -48 41 -48 6 0 9 -3 9 -7 -3 -17 2 -29 21 -53
l20 -25 -10 28 c-22 62 -51 103 -94 137 -13 10 -8 -2 13 -32z"/>
<path d="M235 1663 c-4 -21 -11 -44 -17 -50 -7 -9 -7 -13 1 -13 6 0 14 -1 18
-2 6 -3 11 16 16 70 5 44 -9 41 -18 -5z"/>
<path d="M213 1573 c-34 -6 -28 -20 10 -25 26 -3 33 0 34 14 2 18 -3 19 -44
11z"/>
<path d="M538 1545 c35 -14 76 -34 92 -45 30 -22 40 -25 40 -12 0 4 -12 13
-27 20 -16 7 -48 24 -73 37 -24 14 -56 25 -70 25 -17 -1 -5 -9 38 -25z"/>
<path d="M1365 1532 c19 -64 54 -156 54 -146 1 14 -47 155 -55 163 -4 3 -3 -5
1 -17z"/>
<path d="M193 1513 c-7 -2 -13 -11 -13 -18 0 -21 75 -15 89 7 10 16 7 18 -26
17 -21 0 -44 -3 -50 -6z"/>
<path d="M207 1453 c-26 -7 -15 -27 16 -31 18 -2 29 3 37 17 9 18 8 21 -12 20
-13 -1 -31 -3 -41 -6z"/>
<path d="M2205 1433 c-17 -5 -37 -23 -76 -71 -8 -9 -2 -15 23 -24 18 -7 38
-11 43 -9 6 2 22 5 37 6 57 6 114 62 70 71 -9 2 -9 1 0 -3 6 -3 -21 -19 -62
-34 -41 -16 -75 -27 -78 -25 -2 2 4 18 13 35 11 22 22 31 38 30 45 -4 67 1 67
16 0 15 -32 18 -75 8z"/>
<path d="M205 1389 c-11 -16 -2 -19 39 -12 26 4 33 9 24 14 -18 12 -56 11 -63
-2z"/>
<path d="M206 1351 c-28 -6 -28 -6 -8 -24 23 -21 79 -20 75 1 -2 6 3 12 10 12
8 0 7 4 -3 10 -16 11 -30 11 -74 1z"/>
<path d="M1216 1283 c21 -40 42 -73 47 -73 9 0 -38 88 -66 123 -10 12 -2 -11
19 -50z"/>
<path d="M255 1269 c-4 -5 1 -12 9 -15 16 -6 36 2 36 14 0 11 -39 12 -45 1z"/>
<path d="M1462 1250 c0 -24 25 -115 27 -95 0 6 -6 35 -14 65 -7 30 -13 44 -13
30z"/>
<path d="M1266 1192 c6 -4 14 -17 18 -29 4 -13 11 -23 16 -23 5 0 7 -6 4 -13
-3 -8 2 -20 10 -27 9 -7 14 -16 11 -20 -3 -5 -1 -11 4 -15 17 -10 1 46 -25 92
-14 23 -31 43 -37 43 -9 0 -9 -2 -1 -8z"/>
<path d="M314 1143 c-34 -32 -36 -37 -20 -41 11 -2 25 4 33 14 7 11 20 27 28
37 36 42 8 36 -41 -10z"/>
<path d="M2431 1056 c20 -7 51 -23 69 -36 28 -20 30 -20 20 -3 -14 21 -79 53
-108 53 -9 -1 -1 -7 19 -14z"/>
<path d="M330 927 c0 -16 4 -26 8 -23 5 3 16 -8 25 -23 9 -16 29 -32 43 -35
40 -10 39 -1 -2 21 -21 10 -45 34 -56 53 l-18 35 0 -28z"/>
<path d="M693 914 c-40 -19 -73 -39 -73 -45 0 -5 36 9 80 32 74 38 92 50 73
49 -5 -1 -41 -17 -80 -36z"/>
<path d="M766 870 c-28 -11 -56 -26 -65 -34 -9 -10 7 -6 45 9 32 14 74 25 92
25 20 0 31 4 27 10 -9 15 -44 11 -99 -10z"/>
<path d="M1602 835 c2 -11 15 -24 31 -29 22 -8 31 -6 45 9 13 15 14 16 1 7
-18 -14 -47 -6 -67 17 -11 14 -12 14 -10 -4z"/>
<path d="M733 818 c-13 -6 -23 -15 -23 -20 0 -4 -6 -8 -13 -8 -15 0 -37 -41
-37 -68 0 -9 10 1 23 23 12 22 38 50 56 62 35 24 32 29 -6 11z"/>
<path d="M360 799 c5 -9 16 -22 25 -29 13 -11 18 -10 33 4 10 9 25 16 32 16
35 0 -10 18 -52 22 -39 3 -45 1 -38 -13z"/>
<path d="M605 695 c-21 -30 -36 -57 -34 -59 2 -3 22 20 43 50 21 31 36 57 33
60 -2 2 -21 -20 -42 -51z"/>
<path d="M457 668 c-14 -31 -16 -47 -8 -62 9 -21 10 -20 10 2 1 13 6 33 13 45
13 24 18 57 9 57 -4 0 -14 -19 -24 -42z"/>
<path d="M501 376 c-7 -8 -14 -25 -17 -37 -3 -13 -7 -31 -9 -39 -2 -8 -4 -18
-4 -22 -1 -4 -12 -19 -26 -34 -38 -41 -116 -258 -86 -239 5 2 12 16 15 31 9
33 64 151 86 184 10 14 23 43 30 65 20 63 41 98 51 88 6 -6 -3 -35 -25 -79
-19 -38 -33 -70 -31 -72 2 -2 27 9 57 25 49 26 51 28 26 31 -32 4 -34 15 -13
55 13 25 13 31 1 43 -18 18 -40 18 -55 0z"/>
<path d="M1731 317 c-26 -12 -84 -67 -78 -73 2 -2 16 10 32 26 16 17 34 30 41
30 6 0 17 7 24 15 14 17 13 18 -19 2z"/>
<path d="M1770 300 c8 -5 23 -10 33 -10 20 0 22 -13 4 -28 -8 -7 -18 -7 -27
-2 -20 13 -43 12 -35 0 4 -6 10 -8 14 -6 4 3 13 1 20 -3 19 -12 -5 -53 -28
-49 -10 2 -26 -4 -36 -12 -17 -14 -18 -13 -12 3 3 9 2 17 -4 17 -12 0 -24 -28
-15 -37 3 -3 17 -1 31 5 18 8 26 8 31 0 4 -7 2 -14 -4 -16 -7 -2 -12 -10 -12
-17 0 -9 -14 -15 -37 -18 l-38 -3 33 -8 c26 -7 32 -13 31 -35 0 -25 -1 -25 -9
-4 -6 14 -21 24 -45 29 -38 7 -57 24 -28 25 15 0 14 2 -4 11 -32 15 -29 30 5
22 25 -7 26 -6 12 11 -14 17 -13 18 3 12 13 -5 17 -1 17 17 0 24 -20 30 -37
11 -4 -4 -1 -5 7 -1 8 5 1 -4 -17 -18 -19 -16 -30 -33 -27 -41 3 -8 -7 -32
-23 -52 -54 -70 -74 -103 -63 -103 6 0 14 10 19 23 5 12 21 33 35 46 14 14 26
31 26 38 0 8 4 12 10 8 5 -3 6 -13 3 -22 -5 -12 -2 -15 8 -11 54 20 59 20 57
-4 -2 -16 2 -23 17 -23 11 0 21 -8 23 -17 2 -10 -2 -18 -8 -18 -6 0 -8 -4 -5
-10 13 -22 23 -8 29 44 4 31 16 64 27 77 10 12 19 29 19 37 0 9 6 12 16 8 11
-4 14 -1 9 13 -3 12 4 33 18 54 23 34 24 35 58 20 19 -7 85 -64 147 -126 61
-61 112 -107 112 -101 0 7 -7 17 -15 24 -8 7 -15 18 -15 25 0 6 -11 17 -25 23
-14 7 -34 25 -43 42 -9 16 -20 30 -24 30 -5 0 -8 7 -8 15 0 8 -4 15 -8 15 -4
0 -17 7 -27 15 -48 37 -125 83 -125 74 0 -6 -5 -7 -12 -3 -7 4 -26 9 -43 11
-22 2 -26 0 -15 -7z"/>
<path d="M600 292 c0 -14 24 -39 60 -64 23 -16 24 -18 8 -28 -10 -6 -18 -15
-18 -20 0 -5 16 2 36 15 49 33 125 55 191 55 29 0 53 4 53 8 0 11 -164 6 -187
-6 -31 -17 -83 -6 -114 24 -16 15 -29 22 -29 16z"/>
<path d="M561 229 c-19 -11 -40 -27 -49 -35 -8 -8 -22 -12 -31 -9 -11 3 -18 0
-18 -9 0 -8 4 -14 8 -13 4 1 30 -19 57 -46 28 -26 52 -47 55 -47 10 0 59 92
52 98 -6 6 -55 -45 -55 -59 0 -11 -49 14 -55 29 -8 21 17 51 52 63 39 13 47
23 30 37 -10 8 -22 6 -46 -9z"/>
<path d="M1724 238 c-7 -12 -4 -15 20 -20 10 -1 21 2 23 8 5 14 -35 26 -43 12z"/>
<path d="M1223 154 c-3 -8 -12 -13 -21 -9 -29 11 7 -23 53 -50 52 -30 61 -31
68 -6 4 17 2 18 -19 9 -33 -15 -39 -5 -18 29 10 15 14 25 10 21 -5 -4 -18 -1
-30 7 -26 19 -35 19 -43 -1z m47 -19 c0 -8 -9 -15 -20 -15 -20 0 -26 11 -13
23 12 13 33 7 33 -8z"/>
<path d="M723 131 c-3 -11 -10 -18 -17 -15 -6 2 -19 -9 -29 -25 -26 -44 -21
-44 23 0 22 22 40 44 40 49 0 17 -12 11 -17 -9z"/>
<path d="M611 45 c-36 -42 -37 -45 -12 -45 10 0 21 8 25 18 3 9 10 27 16 40
13 30 7 28 -29 -13z"/>
<path d="M1634 68 c-4 -6 -2 -14 4 -16 17 -5 15 -22 -3 -22 -17 0 -20 -16 -5
-25 6 -3 10 -2 10 3 0 6 10 8 23 5 13 -3 18 -1 11 4 -12 9 -28 44 -26 56 3 11
-6 8 -14 -5z"/>
</g>
</svg>
